# xmcd
#
# Track frame offsets:
#	150
#	18232
#	33887
#	49397
#	64737
#	77820
#	92962
#	108712
#	125512
#	142987
#	163092
#	178737
#	190387
#	204010
#	223122
#	240312
#	250692
#	263175
#	276062
#
# Disc length: 3877
#
# Revision: 3
# Processed by: cddbd v1.5.1PL0 Copyright (c) Steve Scherf et al.
# Submitted via: audiograbber 1.82.02
# Normalized: r2:DSETVAR1
#
DISCID=0f0f2313
DTITLE=Various Artist - SAVA03
DYEAR=1900
DGENRE=vatious
TTITLE0=Nelson, Willie - Seven Spanish Angels
TTITLE1=Parton, Dolly - Tie Our Love (In A Double Knot)
TTITLE2=Dean, Jimmy - Big Bad John
TTITLE3=Strait, George - Ocean Front Property
TTITLE4=Loveless, Patty - I'm That Kind Of Girl
TTITLE5=Association, The - Never My Love
TTITLE6=Alabama - Down Home
TTITLE7=Morgan, Lorrie - He Talks To Me
TTITLE8=Greenwood, Lee - Somebody's Gonna Love You
TTITLE9=Tucker, Tanya - Texas, When I Die
TTITLE10=Alabama - Love In The First Degree
TTITLE11=Nelson, Ricky - Hello Mary Lou
TTITLE12=Cash, Johnny - I Walk The Line
TTITLE13=Milsap, Ronnie - Lost In The Fifties Tonight
TTITLE14=Travis, Randy - A Few Old Country Boys
TTITLE15=Cline, Patsy - Walkin' After Midnight
TTITLE16=Pride, Charley - Is Anybody Goin' To San Antone
TTITLE17=Williams, Hank Jr. - Jambalaya
TTITLE18=Ronstadt, Linda - Faithless Love
EXTD=
EXTT0=
EXTT1=
EXTT2=
EXTT3=
EXTT4=
EXTT5=
EXTT6=
EXTT7=
EXTT8=
EXTT9=
EXTT10=
EXTT11=
EXTT12=
EXTT13=
EXTT14=
EXTT15=
EXTT16=
EXTT17=
EXTT18=
PLAYORDER=
